# xmcd
#
# Track frame offsets: 
#        150
#        16177
#        30572
#        48062
#        68622
#        84490
#        99122
#        131000
#        145907
#        163225
#
# Disc length: 2436 seconds
#
# Revision: 0
# Processed by: cddbd v1.5.2PL0 Copyright (c) Steve Scherf et al.
# Submitted via: ExactAudioCopyFreeDBPlugin 1.0
#
DISCID=7309820a
DTITLE=The Alex Parche Project - The Alex Parche Project
DYEAR=1992
DGENRE=Blues Rock
TTITLE0=Life Of Hell
TTITLE1=The Seeker
TTITLE2=King Of The Night
TTITLE3=Devil In A Picture
TTITLE4=Spacerider
TTITLE5=Rhapsody In Black
TTITLE6=The Longer You Can Wait
TTITLE7=Creature Of The Night
TTITLE8=Lonely Hunter
TTITLE9=Stargazer
EXTD=
EXTT0=
EXTT1=
EXTT2=
EXTT3=
EXTT4=
EXTT5=
EXTT6=
EXTT7=
EXTT8=
EXTT9=
PLAYORDER=
